<svg width="105" height="32" viewBox="0 0 105 32" fill="none" xmlns="http://www.w3.org/2000/svg">
<g clip-path="url(#clip0_4377_20652)">
<path d="M65.1255 24.9993C59.031 29.5351 50.1975 31.9551 42.592 31.9551C31.9279 31.9551 22.3275 27.9724 15.0644 21.3485C14.4937 20.8276 15.005 20.1178 15.6898 20.5234C23.5281 25.1283 33.2198 27.8987 43.2312 27.8987C49.983 27.8987 57.4104 26.4882 64.2398 23.5611C65.2716 23.1186 66.1344 24.2433 65.1255 24.9993Z" fill="#FF9900"/>
<path d="M67.6589 22.0726C66.8828 21.0677 62.5094 21.5978 60.5464 21.8329C59.9484 21.9067 59.8571 21.3812 60.3958 21.0032C63.879 18.5278 69.5945 19.2423 70.261 20.072C70.9275 20.9064 70.0876 26.6914 66.8144 29.4525C66.3122 29.8766 65.8329 29.6507 66.0565 29.0883C66.7915 27.2353 68.4395 23.0821 67.6589 22.0726Z" fill="#FF9900"/>
<path d="M60.6838 3.52832V1.12213C60.6838 0.757978 60.9577 0.513672 61.2864 0.513672H71.9551C72.2975 0.513672 72.5714 0.762588 72.5714 1.12213V3.1826C72.5668 3.52832 72.2792 3.98006 71.7679 4.69454L66.2396 12.6645C68.2939 12.6138 70.4623 12.9226 72.3249 13.9828C72.7449 14.2225 72.859 14.5728 72.891 14.9185V17.4861C72.891 17.8364 72.5075 18.2466 72.1058 18.0346C68.8234 16.2968 64.4637 16.1078 60.8345 18.053C60.4647 18.2559 60.0767 17.8502 60.0767 17.4999V15.0614C60.0767 14.6696 60.0812 14.0012 60.4693 13.4066L66.8741 4.13217H61.3001C60.9577 4.13217 60.6838 3.88787 60.6838 3.52832Z" fill="#221F1F"/>
<path d="M21.766 18.5419H18.5202C18.2098 18.5188 17.9633 18.2838 17.9404 17.9841V1.16387C17.9404 0.827371 18.2189 0.560014 18.5659 0.560014H21.5925C21.9075 0.573834 22.1586 0.818149 22.1814 1.12238V3.32114H22.2408C23.0305 1.19613 24.5142 0.205078 26.5137 0.205078C28.5452 0.205078 29.8143 1.19613 30.7273 3.32114C31.5125 1.19613 33.2975 0.205078 35.2103 0.205078C36.5707 0.205078 38.0589 0.772053 38.9674 2.04429C39.9945 3.45942 39.7845 5.51529 39.7845 7.31762L39.78 17.9334C39.78 18.2699 39.5015 18.5419 39.1546 18.5419H35.9133C35.5892 18.5188 35.329 18.2561 35.329 17.9334V9.01855C35.329 8.30868 35.3929 6.53861 35.2377 5.86561C34.9957 4.73627 34.2699 4.41821 33.3295 4.41821C32.5443 4.41821 31.7225 4.94831 31.3893 5.79647C31.056 6.64463 31.088 8.06437 31.088 9.01855V17.9334C31.088 18.2699 30.8095 18.5419 30.4626 18.5419H27.2213C26.8926 18.5188 26.637 18.2561 26.637 17.9334L26.6324 9.01855C26.6324 7.14246 26.9383 4.38133 24.6329 4.38133C22.3001 4.38133 22.3914 7.07331 22.3914 9.01855V17.9334C22.3914 18.2699 22.113 18.5419 21.766 18.5419Z" fill="#221F1F"/>
<path d="M81.7564 0.205078C86.5726 0.205078 89.1792 4.38133 89.1792 9.69154C89.1792 14.822 86.2986 18.8922 81.7564 18.8922C77.0269 18.8922 74.4521 14.716 74.4521 9.51177C74.4521 4.27532 77.0588 0.205078 81.7564 0.205078ZM81.7837 3.6392C79.3916 3.6392 79.241 6.93042 79.241 8.98167C79.241 11.0375 79.209 15.4258 81.7564 15.4258C84.2717 15.4258 84.3904 11.8857 84.3904 9.72842C84.3904 8.30868 84.3311 6.61236 83.9065 5.26637C83.5413 4.09555 82.8155 3.6392 81.7837 3.6392Z" fill="#221F1F"/>
<path d="M95.424 18.5419H92.1919C91.8678 18.5188 91.6076 18.2561 91.6076 17.9334L91.603 1.10855C91.6304 0.79971 91.8998 0.560014 92.2284 0.560014H95.2369C95.5199 0.573834 95.7527 0.767445 95.8166 1.03019V3.60232H95.876C96.7844 1.30215 98.0581 0.205078 100.3 0.205078C101.756 0.205078 103.176 0.735177 104.089 2.18719C104.938 3.53318 104.938 5.79647 104.938 7.42364V18.0118C104.901 18.3068 104.632 18.5419 104.312 18.5419H101.057C100.761 18.5188 100.514 18.2976 100.482 18.0118V8.87565C100.482 7.03644 100.692 4.34446 98.4507 4.34446C97.6609 4.34446 96.9351 4.87917 96.5744 5.69045C96.1179 6.71838 96.0586 7.7417 96.0586 8.87565V17.9334C96.054 18.2699 95.771 18.5419 95.424 18.5419Z" fill="#221F1F"/>
<path d="M52.1787 10.5067V9.79679C49.8322 9.79679 47.3533 10.3038 47.3533 13.0972C47.3533 14.5124 48.0792 15.4712 49.3255 15.4712C50.2385 15.4712 51.0557 14.9042 51.5715 13.9823C52.2106 12.8483 52.1787 11.7835 52.1787 10.5067ZM55.4519 18.495C55.2373 18.6886 54.9269 18.7024 54.6849 18.5734C53.6076 17.6699 53.4158 17.2504 52.8224 16.3885C51.042 18.2231 49.782 18.7716 47.472 18.7716C44.7421 18.7716 42.6147 17.0707 42.6147 13.6642C42.6147 11.0045 44.0436 9.19294 46.0751 8.3079C47.8372 7.52428 50.2978 7.38599 52.1787 7.16934V6.74526C52.1787 5.96625 52.238 5.04433 51.7861 4.37134C51.3889 3.76749 50.6311 3.51857 49.9646 3.51857C48.7274 3.51857 47.6227 4.1593 47.3533 5.48685C47.2986 5.78187 47.084 6.07227 46.7918 6.0861L43.6419 5.74499C43.3771 5.68507 43.085 5.46841 43.158 5.05817C43.8838 1.20458 47.3305 0.0429688 50.4165 0.0429688C51.9961 0.0429688 54.0595 0.467048 55.3058 1.67475C56.8853 3.16364 56.7347 5.15035 56.7347 7.31224V12.4196C56.7347 13.9546 57.3647 14.6276 57.9581 15.4573C58.1681 15.7523 58.2138 16.1073 57.949 16.3285C57.287 16.8863 56.1092 17.9234 55.461 18.5042L55.4519 18.495Z" fill="#221F1F"/>
<path d="M9.62741 10.5067V9.79679C7.28093 9.79679 4.80207 10.3038 4.80207 13.0972C4.80207 14.5124 5.52793 15.4712 6.7742 15.4712C7.68723 15.4712 8.50438 14.9042 9.02025 13.9823C9.65936 12.8483 9.62741 11.7835 9.62741 10.5067ZM12.9006 18.495C12.686 18.6886 12.3756 18.7024 12.1337 18.5734C11.0563 17.6699 10.8646 17.2504 10.2711 16.3885C8.49069 18.2231 7.23072 18.7716 4.92076 18.7716C2.19082 18.7716 0.0634766 17.0707 0.0634766 13.6642C0.0634766 11.0045 1.49236 9.19294 3.52384 8.3079C5.28597 7.52428 7.74658 7.38599 9.62741 7.16934V6.74526C9.62741 5.96625 9.68675 5.04433 9.23481 4.37134C8.83764 3.76749 8.07983 3.51857 7.41332 3.51857C6.17618 3.51857 5.07141 4.1593 4.80207 5.48685C4.74729 5.78187 4.53273 6.07227 4.24056 6.0861L1.09063 5.74499C0.825852 5.68507 0.533683 5.46841 0.606725 5.05817C1.33258 1.20458 4.77925 0.0429688 7.86527 0.0429688C9.4448 0.0429688 11.5082 0.467048 12.7545 1.67475C14.334 3.16364 14.1834 5.15035 14.1834 7.31224V12.4196C14.1834 13.9546 14.8134 14.6276 15.4069 15.4573C15.6168 15.7523 15.6625 16.1073 15.3977 16.3285C14.7358 16.8863 13.558 17.9234 12.9097 18.5042L12.9006 18.495Z" fill="#221F1F"/>
</g>
<defs>
<clipPath id="clip0_4377_20652">
<rect width="105" height="32" fill="white"/>
</clipPath>
</defs>
</svg>
