<svg width="20" height="20" viewBox="0 0 20 20" fill="none" xmlns="http://www.w3.org/2000/svg">
<path fill-rule="evenodd" clip-rule="evenodd" d="M0.58578 0.58578C1.36684 -0.19526 2.63316 -0.19526 3.41422 0.58578L10 7.1716L16.5858 0.58578C17.3668 -0.19526 18.6332 -0.19526 19.4142 0.58578C20.1952 1.36684 20.1952 2.63316 19.4142 3.41422L12.8284 10L19.4142 16.5858C20.1952 17.3668 20.1952 18.6332 19.4142 19.4142C18.6332 20.1952 17.3668 20.1952 16.5858 19.4142L10 12.8284L3.41422 19.4142C2.63316 20.1952 1.36684 20.1952 0.58578 19.4142C-0.19526 18.6332 -0.19526 17.3668 0.58578 16.5858L7.1716 10L0.58578 3.41422C-0.19526 2.63316 -0.19526 1.36684 0.58578 0.58578Z" fill="#13315F"/>
</svg>
